<svg width="300" height="272" viewBox="0 0 300 272" fill="none" xmlns="http://www.w3.org/2000/svg">
<path d="M267.807 17.2988C252.977 5.99329 236.613 0.259827 219.169 0.259827C197.158 0.259827 173.382 9.65414 150 27.5183C126.618 9.65414 102.842 0.259827 80.8314 0.259827C63.3868 0.259827 47.0226 5.99329 32.1929 17.2988C10.4954 33.8423 -0.331225 54.7187 0.00822897 79.3471C1.17562 163.682 138.126 263.194 143.955 267.389L150 271.74L156.045 267.389C161.875 263.194 298.826 163.682 299.992 79.3471C300.331 54.7187 289.504 33.8423 267.807 17.2988ZM212.273 191.628C186.919 217.128 161.334 237.424 150 246.069C138.666 237.424 113.081 217.129 87.7267 191.628C44.289 147.939 21.1137 109.009 20.7053 79.049C20.4596 61.0925 28.3237 46.2779 44.7444 33.7581C55.8843 25.2635 68.026 20.9569 80.8314 20.9569C105.066 20.9569 128.214 36.0474 143.364 48.7065L150 54.2509L156.636 48.7065C171.786 36.0474 194.933 20.9569 219.169 20.9569C231.974 20.9569 244.116 25.2635 255.255 33.7581C271.676 46.2779 279.54 61.0925 279.295 79.049C278.886 109.011 255.709 147.939 212.273 191.628Z" fill="#B01717"/>
<path d="M253.671 31.9943C240.62 22.0455 226.22 17 210.869 17C191.499 17 170.577 25.267 150 40.9875C129.424 25.267 108.501 17 89.1314 17C73.7801 17 59.3796 22.0455 46.3294 31.9943C27.2356 46.5527 17.7081 64.924 18.0068 86.597C19.0341 160.812 139.551 248.383 144.68 252.075L150 255.904L155.32 252.075C160.45 248.383 280.967 160.812 281.993 86.597C282.292 64.924 272.764 46.5527 253.671 31.9943ZM204.801 185.404C182.489 207.845 159.974 225.705 150 233.313C140.026 225.705 117.511 207.846 95.1994 185.404C56.9741 146.958 36.5797 112.7 36.2203 86.3347C36.0041 70.5329 42.9245 57.4961 57.3748 46.4786C67.1779 39.0033 77.8626 35.2135 89.1314 35.2135C110.458 35.2135 130.828 48.4932 144.16 59.6333L150 64.5123L155.84 59.6333C169.172 48.4932 189.542 35.2135 210.869 35.2135C222.137 35.2135 232.822 39.0033 242.625 46.4786C257.076 57.4961 263.996 70.5329 263.78 86.3347C263.42 112.701 243.025 146.958 204.801 185.404Z" fill="#B01717"/>
<path d="M244.246 47.6312C232.382 38.5868 219.291 34 205.335 34C187.726 34 168.706 41.5155 150 55.8068C131.294 41.5155 112.274 34 94.665 34C80.7092 34 67.6178 38.5868 55.754 47.6312C38.396 60.8661 29.7346 77.5673 30.0062 97.27C30.9401 164.738 140.501 244.349 145.164 247.704L150 251.185L154.836 247.704C159.5 244.349 269.061 164.738 269.994 97.27C270.265 77.5673 261.604 60.8661 244.246 47.6312ZM199.819 187.095C179.535 207.495 159.068 223.732 150 230.648C140.932 223.732 120.465 207.496 100.181 187.095C65.431 152.144 46.8906 121 46.5639 97.0316C46.3674 82.6663 52.6586 70.8146 65.7953 60.7987C74.7072 54.003 84.4206 50.5577 94.665 50.5577C114.053 50.5577 132.571 62.6301 144.691 72.7575L150 77.193L155.309 72.7575C167.429 62.6301 185.947 50.5577 205.335 50.5577C215.579 50.5577 225.293 54.003 234.205 60.7987C247.341 70.8146 253.633 82.6663 253.436 97.0316C253.109 121.001 234.568 152.144 199.819 187.095Z" fill="#B01717"/>
<path d="M234.821 51.2681C224.144 43.1281 212.362 39 199.802 39C183.954 39 166.835 45.7639 150 58.6261C133.165 45.7639 116.046 39 100.198 39C87.6383 39 75.856 43.1281 65.1786 51.2681C49.5564 63.1795 41.7612 78.2106 42.0056 95.943C42.8461 156.664 141.451 228.314 145.647 231.334L150 234.467L154.353 231.334C158.55 228.314 257.155 156.664 257.994 95.943C258.239 78.2106 250.444 63.1795 234.821 51.2681ZM194.837 176.785C176.582 195.146 158.161 209.759 150 215.983C141.839 209.759 123.418 195.147 105.163 176.785C73.8879 145.329 57.2016 117.3 56.9075 95.7284C56.7306 82.7997 62.3928 72.1331 74.2157 63.1189C82.2365 57.0027 90.9785 53.9019 100.198 53.9019C117.648 53.9019 134.314 64.7671 145.222 73.8818L150 77.8737L154.778 73.8818C165.686 64.7671 182.352 53.9019 199.802 53.9019C209.021 53.9019 217.764 57.0027 225.784 63.1189C237.607 72.1331 243.269 82.7997 243.093 95.7284C242.798 117.301 226.111 145.329 194.837 176.785Z" fill="#B01717"/>
<path d="M224.611 55.7914C215.219 48.6312 204.855 45 193.807 45C179.867 45 164.809 50.9498 150 62.2637C135.191 50.9498 120.133 45 106.193 45C95.1448 45 84.7808 48.6312 75.3886 55.7914C61.6468 66.269 54.7899 79.4908 55.0049 95.0888C55.7443 148.501 142.48 211.526 146.171 214.183L150 216.938L153.829 214.183C157.521 211.526 244.257 148.501 244.995 95.0888C245.21 79.4908 238.353 66.269 224.611 55.7914ZM189.44 166.2C173.382 182.35 157.179 195.204 150 200.679C142.821 195.204 126.618 182.351 110.56 166.2C83.0495 138.53 68.3718 113.875 68.1131 94.9C67.9575 83.5275 72.9381 74.1449 83.3379 66.2157C90.3932 60.8357 98.083 58.1082 106.193 58.1082C121.542 58.1082 136.202 67.6655 145.797 75.683L150 79.1945L154.203 75.683C163.798 67.6655 178.458 58.1082 193.807 58.1082C201.917 58.1082 209.607 60.8357 216.662 66.2157C227.062 74.1449 232.042 83.5275 231.887 94.9C231.628 113.876 216.95 138.53 189.44 166.2Z" fill="#B01717"/>
<path d="M216.758 65.6554C208.354 59.249 199.081 56 189.196 56C176.723 56 163.25 61.3235 150 71.4465C136.75 61.3235 123.277 56 110.804 56C100.919 56 91.646 59.249 83.2424 65.6554C70.9472 75.0301 64.812 86.8602 65.0044 100.816C65.6659 148.606 143.271 204.997 146.574 207.374L150 209.839L153.426 207.374C156.729 204.997 234.335 148.606 234.996 100.816C235.188 86.8602 229.053 75.0301 216.758 65.6554ZM185.288 164.442C170.921 178.892 156.423 190.393 150 195.292C143.577 190.393 129.079 178.893 114.712 164.442C90.0969 139.685 76.9642 117.625 76.7327 100.647C76.5936 90.4719 81.0499 82.077 90.355 74.9824C96.6676 70.1688 103.548 67.7284 110.804 67.7284C124.538 67.7284 137.655 76.2797 146.24 83.4532L150 86.5951L153.76 83.4532C162.345 76.2797 175.462 67.7284 189.196 67.7284C196.452 67.7284 203.332 70.1688 209.645 74.9824C218.95 82.077 223.406 90.4719 223.267 100.647C223.036 117.626 209.902 139.685 185.288 164.442Z" fill="#B01717"/>
<path d="M208.904 68.5195C201.489 62.8667 193.307 60 184.584 60C173.579 60 161.691 64.6972 150 73.6293C138.309 64.6972 126.421 60 115.416 60C106.693 60 98.5111 62.8667 91.0963 68.5195C80.2475 76.7913 74.8341 87.2296 75.0039 99.5438C75.5876 141.711 144.063 191.468 146.977 193.565L150 195.741L153.023 193.565C155.938 191.468 224.413 141.711 224.996 99.5438C225.166 87.2296 219.753 76.7913 208.904 68.5195ZM181.137 155.684C168.46 168.435 155.667 178.582 150 182.905C144.333 178.582 131.54 168.435 118.863 155.684C97.1444 133.84 85.5566 114.375 85.3524 99.3947C85.2296 90.4164 89.1616 83.0091 97.372 76.7492C102.942 72.5019 109.013 70.3486 115.416 70.3486C127.533 70.3486 139.107 77.8938 146.682 84.2234L150 86.9957L153.318 84.2234C160.893 77.8938 172.467 70.3486 184.584 70.3486C190.987 70.3486 197.058 72.5019 202.628 76.7492C210.838 83.0091 214.77 90.4164 214.648 99.3947C214.443 114.376 202.855 133.84 181.137 155.684Z" fill="#B01717"/>
<rect x="61" y="41" width="181" height="142" fill="#B01717"/>
<circle cx="225" cy="76" r="51" fill="#F0DA4E"/>
</svg>
