<?xml version="1.0" standalone="no"?>
<!DOCTYPE svg PUBLIC "-//W3C//DTD SVG 20010904//EN"
 "http://www.w3.org/TR/2001/REC-SVG-20010904/DTD/svg10.dtd">
<svg version="1.0" xmlns="http://www.w3.org/2000/svg"
 width="300.000000pt" height="300.000000pt" viewBox="0 0 300.000000 300.000000"
 preserveAspectRatio="xMidYMid meet">
<metadata>
Created by potrace 1.14, written by Peter Selinger 2001-2017
</metadata>
<g transform="translate(0.000000,300.000000) scale(0.100000,-0.100000)"
fill="#000000" stroke="none">
<path d="M718 2855 c-2 -2 -23 -6 -47 -10 -55 -8 -172 -50 -231 -82 -223 -124
-373 -312 -425 -536 -14 -59 -14 -242 0 -317 7 -34 49 -168 77 -240 33 -87
233 -423 268 -450 3 -3 19 -23 35 -45 17 -22 32 -42 35 -45 3 -3 27 -32 55
-65 128 -154 395 -422 564 -565 29 -25 60 -52 69 -60 92 -83 365 -290 383
-290 7 0 37 19 68 42 58 43 292 228 301 238 3 3 39 34 80 70 198 171 437 410
565 565 22 26 45 53 50 59 19 20 151 200 181 246 110 173 195 359 230 505 23
96 26 276 7 362 -59 260 -286 494 -568 586 -199 65 -464 29 -690 -93 -74 -40
-199 -121 -203 -132 -7 -15 -25 -8 -96 40 -138 95 -316 174 -451 202 -53 11
-250 22 -257 15z"/>
</g>
</svg>
